<?xml version="1.0" encoding="utf-8"?>
<!-- Generator: Adobe Illustrator 17.0.0, SVG Export Plug-In . SVG Version: 6.00 Build 0)  -->
<!DOCTYPE svg PUBLIC "-//W3C//DTD SVG 1.1//EN" "http://www.w3.org/Graphics/SVG/1.1/DTD/svg11.dtd">
<svg version="1.1" id="Layer_1" xmlns="http://www.w3.org/2000/svg" xmlns:xlink="http://www.w3.org/1999/xlink" x="0px" y="0px"
	 width="74px" height="74px" viewBox="0 0 74 74" enable-background="new 0 0 74 74" xml:space="preserve">
<path d="M37,0C16.565,0,0,16.565,0,37c0,20.435,16.565,37,37,37s37-16.565,37-37C74,16.565,57.435,0,37,0z M26.212,29.242
	c0.155,0.222,0.466,0.281,0.679,0.113c1.433-1.128,3.252-1.84,5.339-1.84c2.282,0,4.17,0.83,5.502,2.336
	c0.173,0.196,0.497,0.208,0.686,0.027c1.5-1.432,3.577-2.364,5.962-2.364c4.503,0,7.619,3.303,7.619,8.395v11.025
	C52,47.199,51.655,47,51.391,47h-4.672C46.455,47,46,47.199,46,46.935V36.337c0-2.254-0.93-3.731-2.927-3.731S40,34.083,40,36.337
	v10.598C40,47.199,39.562,47,39.298,47h-4.672C34.362,47,34,47.199,34,46.935V36.337c0-2.254-0.894-3.731-2.927-3.731
	c-1.997,0-3.073,1.477-3.073,3.731v10.598C28,47.199,27.469,47,27.205,47h-4.672C22.269,47,22,47.199,22,46.935V34.2
	c0-0.894-0.065-1.438-0.646-1.438c-0.227,0-0.354,0.062-0.354,0.159c0,0,0,0.001,0,0.001c0,0.001-0.129,0.002-0.13,0.003
	c-0.046,0.036-0.23,0.056-0.293,0.053c-0.119-0.007-0.209-0.099-0.225-0.213l-0.005-0.002l-0.69-4.003c0,0-0.053-0.271,0.337-0.5
	c0.776-0.458,1.677-0.743,2.679-0.743C24.159,27.515,25.417,28.1,26.212,29.242z M46.38,63.719
	c-3.084,1.084-6.268,1.617-9.426,1.617c-6.682,0-13.248-2.382-18.514-6.953C7.468,48.863,5.539,32.55,13.807,20.768
	c0.08-0.113,0.078-0.263-0.001-0.377c-0.576-0.835-0.945-1.712-0.939-2.353c0.012-1.18,0.819-2.044,1.045-2.263l4.81-4.209
	c0.226-0.249,0.611-0.267,0.859-0.041l0.179,0.163c0.249,0.226,0.267,0.611,0.04,0.86l-4.375,4.801
	c-0.115,0.109-0.372,0.44-0.374,0.709c0.013,0.136,0.161,0.47,0.405,0.861c0.06,0.082,0.186,0.095,0.258,0.02l0.374-0.409
	l4.906-4.83c0.227-0.248,0.612-0.266,0.86-0.039l0.192,0.166c0.248,0.227,0.265,0.611,0.038,0.859l-4.805,5.776
	c-0.074,0.081-0.054,0.214,0.044,0.263c0.35,0.174,0.749,0.291,1.172,0.251c0.107-0.011,0.338-0.182,0.411-0.263l4.462-4.824
	c0.228-0.247,0.613-0.262,0.86-0.034l0.178,0.172c0.247,0.228,0.262,0.613,0.033,0.86l-3.919,5.297
	c-0.121,0.134-0.825,0.867-1.813,0.965c-0.13,0.012-0.26,0.018-0.389,0.018c-0.658,0-1.312-0.16-1.946-0.47
	c-0.152-0.075-0.338-0.033-0.433,0.108c-7.124,10.539-5.322,24.933,4.408,33.376c6.96,6.042,16.457,7.821,25.084,4.781
	c0.726-0.256,1.524,0.104,1.817,0.816C47.571,62.555,47.171,63.44,46.38,63.719z M52.36,61.479c-0.404,0.322-1,0.026-0.988-0.49
	c0.005-0.214,0.01-0.427,0.015-0.64c0.141-6.058,3.981-12.277,9.189-15.279c0.309-0.178,0.614-0.368,0.717-0.709
	c2.871-9.502-0.069-19.961-7.651-26.543c-7.009-6.08-16.554-7.841-25.212-4.733c-0.724,0.26-1.525-0.096-1.822-0.806
	c-0.324-0.773,0.071-1.66,0.86-1.943c9.646-3.455,20.277-1.49,28.082,5.283c5.684,4.934,9.203,12.089,9.69,19.596
	C65.914,45.596,60.257,55.184,52.36,61.479z"/>
</svg>
