<?xml version="1.0" encoding="utf-8"?>
<!-- Generator: Adobe Illustrator 24.1.0, SVG Export Plug-In . SVG Version: 6.00 Build 0)  -->
<svg version="1.1" id="Capa_1" xmlns="http://www.w3.org/2000/svg" xmlns:xlink="http://www.w3.org/1999/xlink" x="0px" y="0px"
	 viewBox="0 0 64 63" style="enable-background:new 0 0 64 63;" xml:space="preserve">
<style type="text/css">
	.st0{fill:#FF580A;}
</style>
<path class="st0" d="M32,0C14.3,0,0,14.1,0,31.5C0,48.9,14.3,63,32,63c17.7,0,32-14.1,32-31.5C64,14.1,49.7,0,32,0z M22.7,24.9
	c0.1,0.2,0.4,0.3,0.6,0.1c1.2-1,2.8-1.5,4.6-1.5c2,0,3.6,0.7,4.8,2c0.2,0.2,0.4,0.2,0.6,0c1.3-1.2,3.1-2,5.1-2
	c3.9,0,6.5,2.8,6.5,7.1V40c0,0.2-0.2,0.4-0.4,0.4h-4c-0.2,0-0.4-0.2-0.4-0.4v-9.1c0-1.9-1-3.2-2.7-3.2c-1.7,0-2.9,1.3-2.9,3.2v9
	c0,0.2-0.2,0.4-0.4,0.4h-4c-0.2,0-0.4-0.2-0.4-0.4v-9c0-1.9-1-3.2-2.7-3.2c-1.7,0-2.8,1.3-2.8,3.2v9c0,0.2-0.2,0.4-0.4,0.4h-4
	c-0.2,0-0.4-0.2-0.4-0.4V29.1c0-0.8-0.2-1.2-0.7-1.2c-0.2,0-0.3,0-0.4,0.1c0,0-0.1,0-0.1,0c-0.1,0-0.2-0.1-0.2-0.2L17,24.5
	c0,0,0-0.3,0.3-0.4c0.7-0.4,1.4-0.6,2.3-0.6C20.9,23.4,22,23.9,22.7,24.9z M40.1,54.2c-2.7,0.9-5.4,1.4-8.1,1.4
	c-5.8,0-11.5-2-16-5.9c-9.5-8.1-11.2-22-4-32c0.1-0.1,0.1-0.2,0-0.3c-0.5-0.7-0.8-1.5-0.8-2c0-1,0.7-1.8,0.9-1.9l4.2-3.6
	c0.2-0.2,0.5-0.2,0.8,0l0.2,0.1c0.2,0.2,0.2,0.5,0,0.8l-3.8,4.1c-0.1,0.1-0.3,0.4-0.3,0.6c0,0.1,0.1,0.4,0.3,0.8
	c0,0.1,0.2,0.1,0.2,0l0.3-0.3l4.2-4.1c0.2-0.2,0.5-0.2,0.8,0l0.2,0.1c0.2,0.2,0.2,0.5,0,0.7L15,17.4c-0.1,0.1,0,0.2,0,0.2
	c0.3,0.2,0.6,0.3,1,0.2c0.1,0,0.3-0.2,0.3-0.2l3.9-4.1c0.2-0.2,0.5-0.2,0.8,0l0.2,0.2c0.2,0.2,0.2,0.5,0,0.8l-3.4,4.5
	c-0.1,0.1-0.7,0.8-1.6,0.8c-0.1,0-0.2,0-0.3,0c-0.6,0-1.1-0.1-1.7-0.4c-0.1-0.1-0.3,0-0.4,0.1c-6.2,9-4.6,21.2,3.8,28.4
	c6,5.1,14.2,6.6,21.7,4.1c0.6-0.2,1.3,0.1,1.6,0.7C41.1,53.2,40.8,54,40.1,54.2z M45.2,52.3c-0.3,0.3-0.8,0-0.8-0.4
	c0-0.2,0-0.4,0-0.5c0.1-5.1,3.4-10.4,7.9-13c0.3-0.2,0.6-0.3,0.6-0.6c2.5-8.1,0-17-6.6-22.6c-6.1-5.2-14.3-6.7-21.8-4
	c-0.6,0.2-1.3-0.1-1.6-0.7c-0.3-0.7,0-1.4,0.8-1.7c8.3-2.9,17.5-1.3,24.3,4.5C53,17.5,56,23.6,56.4,30C57,38.8,52.1,47,45.2,52.3z"
	/>
</svg>
